<svg width="512" height="512" viewBox="0 0 512 512" fill="none" xmlns="http://www.w3.org/2000/svg">
  <!-- Background -->
  <rect width="512" height="512" rx="100" fill="#2563EB" />
  
  <!-- Notepad base -->
  <rect x="116" y="96" width="280" height="360" rx="24" fill="white" />
  
  <!-- Note lines -->
  <rect x="156" y="186" width="200" height="8" rx="4" fill="#E5E7EB" />
  <rect x="156" y="226" width="200" height="8" rx="4" fill="#E5E7EB" />
  <rect x="156" y="266" width="200" height="8" rx="4" fill="#E5E7EB" />
  <rect x="156" y="306" width="200" height="8" rx="4" fill="#E5E7EB" />
  <rect x="156" y="346" width="140" height="8" rx="4" fill="#E5E7EB" />
  
  <!-- P letter -->
  <path d="M170 136C170 126.059 178.059 118 188 118H216C234.778 118 250 133.222 250 152C250 170.778 234.778 186 216 186H190V146" stroke="#2563EB" stroke-width="24" stroke-linecap="round" />
  
  <!-- N letter -->
  <path d="M262 118L262 186" stroke="#2563EB" stroke-width="24" stroke-linecap="round" />
  <path d="M262 118L322 186" stroke="#2563EB" stroke-width="24" stroke-linecap="round" />
  <path d="M322 118L322 186" stroke="#2563EB" stroke-width="24" stroke-linecap="round" />
  
  <!-- Shine effect -->
  <circle cx="380" cy="132" r="16" fill="white" fill-opacity="0.6" />
</svg>